<svg xmlns="http://www.w3.org/2000/svg" width="19.274" height="19.274" viewBox="0 0 19.274 19.274">
  <path id="Icon_awesome-arrow-circle-down" data-name="Icon awesome-arrow-circle-down" d="M19.837,10.2A9.637,9.637,0,1,1,10.2.563,9.636,9.636,0,0,1,19.837,10.2Zm-5.58-1.123-2.813,2.934v-7.1a.93.93,0,0,0-.933-.933H9.889a.93.93,0,0,0-.933.933v7.1L6.143,9.077A.934.934,0,0,0,4.81,9.061l-.424.427a.929.929,0,0,0,0,1.317l5.153,5.157a.929.929,0,0,0,1.317,0l5.157-5.157a.929.929,0,0,0,0-1.317l-.424-.427a.934.934,0,0,0-1.333.016Z" transform="translate(-0.563 -0.563)" fill="#fff"/>
</svg>
